<svg xmlns="http://www.w3.org/2000/svg" viewBox="0 0 64 64" fill="none">
  <rect width="64" height="64" rx="20" fill="#0F172A"/>
  <rect x="6" y="6" width="52" height="52" rx="16" fill="url(#paint0_linear)"/>
  <path d="M21 45V19H28.24C30.66 19 32.66 19.72 34.24 21.16C35.82 22.6 36.61 24.48 36.61 26.8C36.61 29.12 35.82 31 34.24 32.44C32.66 33.88 30.66 34.6 28.24 34.6H25.7V45H21ZM25.7 29.98H27.9C29.18 29.98 30.19 29.68 30.94 29.08C31.7 28.47 32.08 27.71 32.08 26.8C32.08 25.89 31.7 25.13 30.94 24.52C30.19 23.91 29.18 23.6 27.9 23.6H25.7V29.98ZM39.4 45V19H44.1V40.18H54V45H39.4Z" fill="white"/>
  <defs>
    <linearGradient id="paint0_linear" x1="10" y1="10" x2="54" y2="54" gradientUnits="userSpaceOnUse">
      <stop stop-color="#2563EB"/>
      <stop offset="1" stop-color="#16A34A"/>
    </linearGradient>
  </defs>
</svg>
